<?xml version="1.0" encoding="UTF-8" standalone="no"?>
<!-- Created with Inkscape (http://www.inkscape.org/) -->
<svg
   xmlns:dc="http://purl.org/dc/elements/1.1/"
   xmlns:cc="http://web.resource.org/cc/"
   xmlns:rdf="http://www.w3.org/1999/02/22-rdf-syntax-ns#"
   xmlns:svg="http://www.w3.org/2000/svg"
   xmlns="http://www.w3.org/2000/svg"
   xmlns:sodipodi="http://sodipodi.sourceforge.net/DTD/sodipodi-0.dtd"
   xmlns:inkscape="http://www.inkscape.org/namespaces/inkscape"
   width="924"
   height="372.57141"
   id="svg2"
   sodipodi:version="0.32"
   inkscape:version="0.45"
   sodipodi:docbase="C:\Documents and Settings\Administrator\My Documents\My Pictures\Wik - pics\Olmec"
   sodipodi:docname="San Andres Cylinder Roll print 1.svg"
   inkscape:output_extension="org.inkscape.output.svg.inkscape"
   version="1.0"
   sodipodi:modified="true">
  <defs
     id="defs4" />
  <sodipodi:namedview
     id="base"
     pagecolor="#ffffff"
     bordercolor="#666666"
     borderopacity="1.0"
     gridtolerance="10000"
     guidetolerance="10"
     objecttolerance="10"
     inkscape:pageopacity="0.0"
     inkscape:pageshadow="2"
     inkscape:zoom="2.8"
     inkscape:cx="398.44268"
     inkscape:cy="260.89433"
     inkscape:document-units="px"
     inkscape:current-layer="layer1"
     inkscape:window-width="1024"
     inkscape:window-height="671"
     inkscape:window-x="-4"
     inkscape:window-y="-4" />
  <metadata
     id="metadata7">
    <rdf:RDF>
      <cc:Work
         rdf:about="">
        <dc:format>image/svg+xml</dc:format>
        <dc:type
           rdf:resource="http://purl.org/dc/dcmitype/StillImage" />
      </cc:Work>
    </rdf:RDF>
  </metadata>
  <g
     inkscape:label="Layer 1"
     inkscape:groupmode="layer"
     id="layer1"
     transform="translate(208.34685,-121.24252)">
    <path
       style="fill:#000000"
       d="M 78.953377,449.32121 C 73.471917,445.48099 68.407627,440.82895 67.699417,438.98335 C 66.925507,436.96662 72.728489,433.85423 74.405217,425.44513 C 75.955512,417.67012 78.905474,410.04673 79.056101,402.12009 C 79.612585,372.12129 93.01733,368.72855 100.24862,370.96041 C 105.47791,372.57438 119.49276,378.82606 98.335787,407.85167 C 83.607629,428.05748 88.615827,437.50045 94.224217,439.28049 C 100.98571,441.4265 102.14367,446.93284 96.929917,452.14658 C 91.245857,457.83065 91.057267,457.80102 78.953377,449.32121 z M 479.37503,452.08655 C 464.42144,449.48091 451.73217,437.00553 451.73217,424.90961 C 450.71487,407.38347 468.89577,395.24404 475.19319,416.99003 C 476.53809,428.67093 493.19645,425.83079 493.19645,413.92059 C 493.19645,407.087 483.6816,399.81158 459.79467,388.38043 C 429.73424,373.9949 417.22686,358.01369 417.19145,333.94453 C 417.17643,323.74828 424.47108,308.15994 430.85672,304.74245 C 436.19603,301.88495 452.18504,300.64724 455.29097,306.1972 C 456.63817,308.60451 451.20045,316.0287 449.07941,325.48383 C 447.25298,333.62567 451.39391,342.10402 452.17035,345.19765 C 454.04294,352.65859 460.32295,367.32901 485.07544,381.62456 C 509.7894,395.89786 514.86921,401.99571 514.64114,417.11548 C 514.45584,429.39868 510.27534,439.18879 502.05371,446.59334 C 495.42373,452.56443 489.85651,453.91292 479.37503,452.08655 z M 606.10977,440.60773 C 605.96386,439.02402 606.00215,436.0729 606.19482,434.04967 C 606.76018,428.11293 600.30654,424.54136 586.27097,423.02346 C 575.13155,421.81876 566.80083,412.32428 563.83963,407.04026 C 560.61214,401.28101 560.71493,400.32507 565.20217,394.37061 C 571.94952,390.88556 603.4577,399.05905 611.77934,401.91496 C 627.15941,407.86709 631.71431,414.98043 631.71431,433.04713 L 631.71431,443.48719 L 619.04467,443.48719 C 610.58614,443.48719 606.28687,442.53013 606.10977,440.60773 z M -58.757747,439.60688 C -60.997742,433.76954 -57.123181,431.24566 -42.974475,429.32563 C -35.062531,428.25196 -26.063533,424.9286 -19.059711,420.49381 C -12.883555,416.58308 -1.8698429,411.53798 5.4151971,409.28248 C 19.281767,404.98927 21.164617,403.04593 14.870417,399.52352 C 9.6840271,396.62106 -4.3765159,400.86772 -37.156105,415.23689 C -52.018314,421.75185 -65.235056,426.42916 -66.52664,425.63093 C -67.818225,424.8327 -68.874977,421.72373 -68.874977,418.72211 C -68.874977,414.25258 -66.68573,412.44015 -56.781227,408.71007 C -50.129665,406.20505 -36.955339,400.43555 -27.504947,395.88894 C -18.054556,391.34234 -6.9110299,386.98241 -2.7415529,386.20021 C 2.7809871,385.16418 4.8393071,383.54703 4.8393071,380.24421 C 4.8393071,376.35307 3.7780871,375.92587 -2.6473029,377.23041 C -14.092241,379.55406 -30.92607,386.09423 -55.445778,397.7433 C -67.697663,403.56405 -78.322886,408.32648 -79.057385,408.32648 C -79.791881,408.32648 -80.392834,405.28724 -80.392834,401.57261 C -80.392834,396.75985 -78.485795,393.46084 -73.757459,390.09396 C -63.270146,382.62634 -30.110749,369.43883 -12.825373,365.86122 C -4.1402639,364.06365 3.6164171,361.94222 4.4117071,361.14694 C 9.1810771,356.37758 -17.919346,351.67859 -54.477656,350.93604 C -63.253427,350.75779 -64.267834,350.15752 -64.267834,345.1428 C -64.267834,342.06589 -62.511939,337.79252 -60.365845,335.64643 C -54.760804,330.04138 -15.544239,332.04339 3.6875271,338.91635 C 11.289307,341.63304 18.519377,344.10835 19.754337,344.41703 C 20.989307,344.72571 22.714097,337.72201 23.587217,328.85326 C 24.460327,319.98451 26.818877,308.19235 28.828427,302.64846 C 33.666037,289.30266 33.452917,286.84075 27.299127,284.98276 C 16.852107,281.82854 -17.453608,266.57077 -32.017834,258.60102 C -56.388445,245.26508 -78.208344,238.43084 -87.251785,241.30112 C -91.080627,242.51634 -91.910691,244.76173 -91.910691,253.90379 C -91.910691,263.61732 -92.872538,265.86126 -99.49655,271.60124 C -108.17272,276.88649 -158.29209,308.67429 -179.05288,302.7512 C -169.95214,289.99316 -177.46813,294.28401 -154.10712,281.28309 C -142.29058,274.70692 -128.57876,263.6912 -110.72147,246.42821 L -84.612613,221.18824 L -72.803836,222.32292 C -64.090105,223.1602 -51.914741,228.05936 -26.350196,241.01509 C 10.113867,259.49452 31.285967,267.80862 41.880347,267.80862 C 51.552537,267.80862 60.916157,258.3324 80.305647,228.92121 C 90.010177,214.2008 102.63078,197.13482 108.35147,190.99681 C 126.98204,171.00708 146.2182,165.48561 165.10691,174.70594 C 176.66793,180.34933 180.72236,192.45221 174.32343,202.21821 C 170.44889,208.13151 170.47715,208.53717 175.10733,213.46576 C 184.35931,223.31405 180.81443,238.93531 165.70809,254.88564 C 157.44887,263.60629 156.21409,270.29632 159.27569,289.73585 C 166.60635,336.28152 164.00896,357.69852 148.89145,375.35993 C 141.51191,383.98125 133.31286,387.3516 130.19071,389.01715 C 123.20373,392.74445 115.27153,393.19672 113.99219,386.45071 C 111.06481,371.01478 109.93326,362.25505 99.884457,362.25505 C 88.268767,362.25505 73.946447,376.72514 73.946447,388.46066 C 73.946447,395.5922 72.548917,397.79883 64.156277,403.91896 C 47.279387,416.22598 33.491687,422.14526 21.616777,422.18186 C 10.496467,422.21614 9.1212471,422.74999 -9.5785559,434.29153 C -17.759347,439.34071 -23.826272,440.97719 -38.583096,442.11515 C -54.891628,443.37279 -57.433926,443.05671 -58.757747,439.60688 z M 32.482167,396.59798 C 35.460037,394.49199 35.478117,393.97235 32.613057,392.83759 C 23.854897,389.36878 18.660737,380.8911 18.660737,370.06524 C 18.660737,359.38335 18.598657,359.29362 14.053597,363.40683 C 7.3949171,369.43286 7.7184471,385.21912 14.629487,391.50674 C 19.172197,395.63965 24.160947,398.42237 27.875027,398.89506 C 28.508507,398.97568 30.581717,397.942 32.482167,396.59798 z M 50.484047,382.4113 C 50.904517,380.19411 49.958417,378.38005 48.381557,378.38005 C 42.707347,378.38005 37.089307,370.75306 37.089307,363.0498 C 37.089307,357.99925 35.983687,355.34433 33.880407,355.34433 C 26.440847,355.34433 25.504597,376.00963 32.621717,383.12674 C 38.354637,388.85966 49.344657,388.4195 50.484047,382.4113 z M 106.03249,310.11433 C 112.9286,305.59583 120.98329,292.24239 125.55558,271.43404 C 129.80019,252.11693 131.65179,246.40327 124.199,247.4908 C 119.87631,248.12158 121.40065,253.12434 117.84289,269.40337 C 112.71494,292.86725 109.50788,302.75972 99.692834,304.72273 C 92.304544,306.20039 82.997617,312.79549 88.000957,317.79883 C 90.893247,320.69114 97.836821,315.48434 106.03249,310.11433 z M 153.20225,230.0988 C 161.20565,221.34605 159.80042,208.10909 153.39854,198.67814 C 146.36049,190.90116 131.00405,193.36673 123.52417,203.10899 C 117.46688,210.99839 118.73742,226.13245 127.94687,232.5278 C 136.4275,239.37118 145.79037,238.45702 153.20225,230.0988 z M 130.35972,224.82106 C 119.54593,214.72856 125.80586,205.10986 138.22695,202.47826 C 151.7126,199.62111 160.9725,209.35172 150.16213,223.683 C 142.9172,233.2876 137.60898,231.58679 130.35972,224.82106 z M 125.19836,431.28947 C 122.34626,430.14312 118.53616,429.77181 116.73142,430.46435 C 114.80034,431.20539 111.82917,429.24961 109.51086,425.71142 C 104.26505,417.70531 106.67617,398.07642 114.19743,396.99216 C 118.13334,396.42475 122.46207,400.23581 128.36912,395.92521 C 135.75725,390.53381 120.89563,413.33369 120.97965,416.38898 C 121.14926,422.55787 122.3429,423.67059 132.09954,426.75505 C 138.11096,428.6555 143.03485,430.98786 143.0415,431.93809 C 143.05788,434.27955 131.60148,433.86311 125.19836,431.28947 z M 543.29913,427.4707 C 539.61462,426.50785 538.25226,423.88685 539.01097,419.22081 C 539.16973,418.24439 541.43126,404.25019 544.0366,388.12259 C 550.78053,346.37596 557.54769,315.86438 561.39689,309.8488 C 565.6848,303.1476 571.70519,303.26795 578.20322,310.18478 C 585.38603,317.83054 584.25596,329.11385 576.39388,328.25013 C 568.75696,327.41114 566.98946,331.32069 565.20037,341.91033 C 563.90053,349.60395 562.81034,351.82614 567.85967,357.82692 C 571.13865,361.72378 573.82145,365.8017 573.82145,366.88898 C 573.82145,372.94304 570.05434,383.43984 563.95117,386.59592 C 553.8375,391.8259 552.41368,402.52265 560.11093,413.62978 C 568.60535,425.88724 565.63069,429.18122 554.77311,428.79141 C 550.67961,428.64444 545.51632,428.05012 543.29913,427.4707 z M 335.40181,397.93159 C 313.86342,393.70463 292.36642,389.60494 287.63069,388.82115 C 275.68195,386.84356 273.00976,381.038 279.59664,371.36648 C 289.7858,356.40577 288.07395,356.25738 335.40181,376.20403 C 348.07145,381.54373 367.68501,389.14164 378.98748,393.08826 C 396.18508,399.09339 402.61439,403.0676 399.9163,404.82855 C 395.99676,407.38669 372.81507,405.27404 335.40181,397.93159 z M 166.47498,397.89001 C 155.91787,396.24134 142.33031,392.08532 141.51847,391.27348 C 140.70662,390.46163 154.45916,379.14837 156.36539,375.73604 C 160.78239,367.82922 160.51985,376.89123 183.69267,381.68349 C 205.45792,386.18462 231.50574,386.23659 252.35276,381.82043 C 264.9888,379.14366 268.73883,379.03088 270.17017,381.28453 C 275.35726,389.45175 270.6639,392.43789 243.73794,398.10194 C 224.83177,402.07896 192.73488,401.99092 166.47498,397.89001 z M 625.65181,375.5671 C 610.97951,372.51945 579.54626,360.48993 574.74207,356.68717 C 570.47369,353.30852 571.25292,342.41643 576.07524,338.05229 C 581.82956,332.8447 592.57902,336.46686 620.17132,344.37798 C 646.5687,351.94649 653.09055,356.80702 650.69942,367.12963 C 649.39069,372.77944 643.75224,379.35067 640.76064,378.71261 C 640.05257,378.56158 633.2536,377.14611 625.65181,375.5671 z M 389.53574,373.37259 C 382.56744,370.83852 368.57324,367.40855 358.43753,365.7504 C 340.38098,362.79648 329.15982,359.14977 304.87949,348.34492 C 291.19872,342.25692 289.86371,338.28113 297.36764,325.9738 C 300.27249,321.2095 303.75998,318.48719 306.95858,318.48719 C 309.723,318.48719 322.95499,324.02789 336.36295,330.79985 C 349.77094,337.57182 367.6695,345.991 376.13757,349.50913 C 393.25168,356.61936 402.40864,365.3507 409.6508,374.62558 C 402.17772,376.68301 401.55307,376.7039 389.53574,373.37259 z M 512.77681,376.73442 C 477.06275,368.12054 458.93435,353.91958 458.24084,334.01338 C 457.22881,304.96505 471.79192,297.85443 511.69072,307.9158 C 524.69766,311.19579 536.74186,315.0431 538.45557,316.46537 C 544.0759,321.12982 540.70142,367.56948 534.16584,375.50059 C 531.83025,378.3349 521.8093,378.91296 512.77681,376.73442 z M 532.09085,362.02886 C 533.4592,358.10355 535.24221,348.41658 536.05304,340.50223 C 537.49604,326.41789 537.37937,326.00717 530.55538,321.14807 C 526.72084,318.41762 522.04032,316.18362 520.15428,316.18362 C 514.62273,316.18362 513.18541,323.54669 518.6001,325.9727 C 529.39909,330.81111 529.55187,338.90326 518.62044,336.27045 C 516.0978,335.66288 512.81245,336.6368 511.20854,338.56938 C 508.82381,341.44281 508.75186,343.43624 513.42741,346.18743 C 522.4626,351.50392 530.0199,358.14366 513.9286,357.64791 C 510.99816,357.55763 509.32145,359.18363 509.32145,361.87111 C 509.32145,367.92863 511.30172,369.16576 520.99789,369.16576 C 528.54856,369.16576 529.90774,368.2913 532.09085,362.02886 z M 504.12854,355.34433 C 508.56259,340.2887 508.52843,319.0105 504.06305,314.5451 C 502.07651,312.55857 495.26808,310.43521 488.93317,309.8265 C 478.87704,308.86024 476.67432,309.46062 471.57806,314.55688 C 458.173,327.96194 461.92932,347.15763 480.36909,359.481 C 495.30851,369.46509 500.22173,368.60966 504.12854,355.34433 z M 476.2767,346.52456 C 460.30854,332.25797 470.64704,315.12913 485.91288,318.93157 C 489.43585,319.80908 498.80681,316.13706 497.56798,325.438 C 496.44635,333.85903 491.95653,327.70148 486.5357,327.70148 C 476.20575,327.70148 478.95317,336.3687 486.59367,342.37871 C 489.75781,344.86763 496.38917,342.24275 494.11442,350.20957 C 491.51192,359.32427 480.49912,351.1903 476.2767,346.52456 z M -140.28569,357.66958 C -140.28569,351.73948 -138.19856,350.09816 -116.67408,339.10157 C -103.6877,332.46698 -90.175015,325.01781 -86.645893,322.54785 C -78.130515,316.58813 -74.268304,318.53057 -71.078299,330.37734 C -68.666914,339.33255 -68.862923,340.54929 -73.295116,344.13826 C -75.96927,346.30366 -89.803757,351.93643 -104.03842,356.65553 C -112.85258,357.66942 -127.55335,369.89948 -140.28569,357.66958 z M 376.8661,331.98526 C 365.46342,325.66955 345.58222,315.39549 332.68565,309.15401 C 308.92127,297.65291 304.23302,295.97687 307.71443,284.07391 C 309.29923,278.65548 302.17837,273.94382 295.83208,276.28372 C 293.52311,277.13505 282.667,283.88544 271.70742,291.2846 C 260.74783,298.68375 244.2787,307.83126 235.10933,311.6124 C 220.90008,317.47183 215.4226,318.48719 198.02248,318.48719 C 180.67859,318.48719 172.91405,317.79406 169.00003,313.88005 C 164.04836,308.92839 163.18742,303.2275 166.58111,297.86278 C 168.41946,294.95677 174.34075,295.03274 185.14563,298.43868 C 210.80624,306.52747 231.91329,302.61595 255.64452,285.37396 C 261.50211,281.11813 273.55092,273.79373 282.41967,269.09753 C 301.73507,258.86961 307.39082,259.14591 327.38944,271.29442 C 347.19218,283.32396 394.78574,328.2247 403.35717,340.72151 C 393.35717,339.95233 394.6471,340.63612 376.8661,331.98526 z M -160.51086,329.59747 C -155.11433,314.32578 -155.27106,315.41513 -122.21121,298.2642 C -104.57617,289.11541 -88.423881,281.63005 -86.317242,281.63005 C -81.098034,281.63005 -71.178549,291.9251 -71.178549,297.34192 C -71.178549,302.01549 -80.497333,310.46769 -123.29451,323.93889 C -143.89723,330.42398 -143.57121,331.65945 -160.51086,329.59747 z M 393.21208,293.80443 C 384.59414,287.742 369.61623,276.98453 359.92782,269.89893 C 339.57856,255.01655 309.3143,240.83952 273.20538,221.81252 C 253.7068,211.53807 247.69642,209.26571 247.12999,205.27737 C 265.22416,188.78938 350.91435,235.97746 374.56253,246.63822 C 420.33919,269.31324 428.20646,277.57037 420.21162,294.54945 C 417.90602,299.446 414.41344,303.76159 412.45033,304.13965 C 410.48723,304.51771 401.82999,299.86686 393.21208,293.80443 z M 412.57145,288.41091 C 412.57145,281.6908 402.21729,273.05629 374.1456,256.36698 C 352.86452,243.71485 289.11072,218.82647 283.34573,218.82647 C 279.20329,218.82647 284.42007,219.59952 292.04427,222.78511 C 305.28083,228.31571 366.57261,259.66934 386.08038,274.21532 C 405.73381,288.86991 412.57145,296.2434 412.57145,288.41091 z M 533.06016,302.13171 C 527.88505,295.55262 527.82394,289.26413 529.93661,283.75858 C 530.88211,281.29464 536.5274,278.34705 542.62491,278.34705 C 550.00784,278.34705 553.63291,283.93649 555.78129,288.65167 C 562.28422,302.92406 542.77234,314.47874 533.06016,302.13171 z M 548.04364,293.7238 C 547.0361,288.49213 540.71395,288.49213 539.70641,293.7238 C 539.16171,296.55223 540.4055,297.75505 543.87503,297.75505 C 547.34455,297.75505 548.58834,296.55223 548.04364,293.7238 z M 493.53742,296.00091 C 489.96668,292.43018 485.4374,282.0313 493.03235,273.66482 C 499.63857,266.3875 510.23539,268.90683 514.93972,273.79023 C 520.93056,280.00911 522.68009,291.77627 517.54329,296.91307 C 513.25943,301.19693 497.45124,299.91473 493.53742,296.00091 z M 509.5216,285.47041 C 510.0238,282.881 508.71068,281.63005 505.49035,281.63005 C 502.86354,281.63005 500.71431,283.01219 500.71431,284.70147 C 500.71431,291.75672 508.17611,292.40818 509.5216,285.47041 z M 457.36656,289.84782 C 453.45274,285.93399 448.79791,275.7564 459.48486,267.60972 C 467.49897,261.50055 476.72289,262.27475 481.40174,267.44484 C 486.46812,273.04312 488.23268,283.15718 481.11206,290.53034 C 472.28211,299.67345 465.76483,297.99355 457.36656,289.84782 z M 473.6161,279.16606 C 473.6161,277.38854 471.80203,275.58486 469.58485,275.15787 C 465.61409,274.39317 463.97256,279.28115 467.1373,282.4459 C 469.55193,284.86052 473.6161,282.80306 473.6161,279.16606 z M 530.28786,267.2501 C 528.40434,262.74223 525.77246,253.07295 523.2046,249.46671 C 520.63674,245.86047 518.53574,242.36045 518.53574,241.68889 C 518.53574,241.01732 524.73852,242.56257 532.31969,245.12278 C 545.85985,249.69536 560.81522,268.6625 559.00554,274.09154 C 557.37583,278.98064 553.77157,277.62635 549.23321,270.41965 C 546.68233,266.36897 538.9345,256.07555 536.53978,255.61437 C 532.47773,254.8321 533.27605,256.9666 537.90411,262.85022 C 544.09793,270.72439 544.24209,275.44622 538.28865,275.44622 C 535.22183,275.44622 532.58286,272.74282 530.28786,267.2501 z M 631.82993,268.79613 C 628.43062,264.70021 629.52799,253.22683 633.44199,251.94162 C 635.0257,251.4216 636.32145,252.66994 636.32145,254.71573 C 636.32145,260.44273 643.41399,262.00536 647.02065,257.07298 C 651.67165,250.71234 650.80758,244.67341 644.85863,241.96289 C 640.75652,240.09384 636.83213,240.63611 627.31645,244.38684 C 620.57459,247.04424 599.89285,243.95627 597.50783,243.19929 C 588.55189,240.35679 588.75072,226.76255 597.86883,223.86858 C 613.69353,218.84601 653.34835,223.42734 660.58868,233.76433 C 670.08509,247.32235 658.14853,272.11219 642.12381,272.11219 C 637.97581,272.11219 633.34356,270.61996 631.82993,268.79613 z M 498.72905,263.26314 C 496.68032,262.11662 494.37313,258.66456 493.60194,255.59191 C 492.83075,252.51925 488.28301,243.09148 482.26122,237.72789 C 471.42082,228.07235 471.38304,227.98934 478.4415,229.33457 C 482.36244,230.08184 491.28748,233.22157 498.27493,236.31176 C 516.54585,244.39202 530.24044,266.737 517.63555,266.737 C 515.74522,266.737 512.75647,263.28551 510.99387,259.06702 C 507.69416,251.1697 501.91938,244.94003 499.81626,247.04314 C 499.16191,247.69749 498.77016,250.3852 501.41494,254.86779 C 506.38409,263.28988 505.22892,266.90065 498.72905,263.26314 z M 457.29237,251.10772 C 455.21754,246.99009 450.32284,240.25214 446.41525,236.13451 C 438.28883,227.57126 440.58221,226.69819 456.74039,232.20383 C 467.28445,235.79655 484.89972,253.62142 483.98217,258.26767 C 482.59162,265.30912 473.49298,260.07837 468.54273,248.92816 C 465.53243,242.14761 460.94645,242.64847 460.94645,245.19075 C 460.94645,247.18459 462.50137,250.10639 464.40181,251.68362 C 468.80689,255.33951 468.07715,260.10956 463.70336,260.10956 C 461.83544,260.10956 459.36719,255.22536 457.29237,251.10772 z M 579.55668,252.98251 C 566.61531,247.54107 566.13068,245.70806 567.94564,209.06529 C 570.07147,166.14661 570.85842,163.20324 580.4586,162.26305 C 593.86363,160.95022 599.88818,171.44801 588.26565,175.86689 C 580.58511,178.78702 578.50971,181.80936 578.46386,190.14077 C 578.43689,195.04609 580.32358,197.67135 586.4911,201.31027 C 592.75962,205.00879 594.5536,207.55433 594.5536,212.75044 C 594.5536,217.03863 593.36214,219.43362 591.22885,219.43362 C 587.14103,219.43362 580.73217,228.19915 580.73217,233.79015 C 580.73217,236.05457 582.80538,239.68242 585.33931,241.85204 C 589.95106,245.80074 591.48743,252.76292 588.19595,254.79716 C 587.23319,255.39218 583.3455,254.57559 579.55668,252.98251 z M 547.33038,239.05906 C 546.06342,238.65042 535.9565,235.58894 524.87056,232.25578 C 505.93428,226.5623 504.71703,225.81657 504.75909,219.93509 C 504.84716,207.62599 511.11764,169.40022 513.90224,164.19714 C 516.65768,159.04857 517.37582,158.94114 538.91514,160.4552 C 551.11195,161.31255 561.99414,162.91701 563.0978,164.02067 C 564.23761,165.16049 563.92478,169.60176 562.37358,174.3019 C 559.69614,182.41462 559.40393,182.57647 547.43379,182.57647 C 533.95956,182.57647 530.87968,184.78082 528.62868,196.03584 C 526.68414,205.75863 530.1814,209.37095 544.51528,212.44501 C 558.34839,215.41168 559.9174,217.23267 559.96476,230.37558 C 559.99602,239.05643 559.41273,240.14515 554.81699,239.9839 C 551.96632,239.88388 548.59735,239.4677 547.33038,239.05906 z M 181.63624,236.96487 C 182.14561,230.38117 182.71164,226.94902 181.90208,223.46487 C 181.14342,220.19987 181.17645,217.82442 180.33311,216.4132 C 179.13212,214.40352 183.43796,214.98718 185.22289,214.98718 C 193.93148,219.12237 220.4256,199.97107 206.43306,204.46377 C 204.21587,205.37021 198.96214,207.10427 194.75808,208.31724 C 188.91608,210.0028 175.51769,208.95935 177.72895,205.03561 C 181.69223,198.00299 181.30711,192.34071 178.6316,183.88272 C 176.8885,178.37233 190.8907,186.61484 204.17968,186.903 C 222.32471,187.29646 236.61095,191.4807 237.61517,196.69579 C 238.14165,199.42989 235.96095,200.88792 229.58414,202.06536 C 220.39118,203.76279 212.48462,211.69983 209.45416,218.90518 C 215.51507,218.49887 211.26524,220.3145 221.04954,213.67469 C 230.07565,207.5494 239.12698,205.96988 237.55014,210.79522 C 236.7552,213.22782 195.72929,235.46066 191.90013,235.53397 C 191.19206,235.54752 183.62687,238.54858 181.63624,236.96487 z M 199.90983,199.6068 C 205.51785,197.4548 204.22843,194.09433 197.79467,194.09433 C 194.21133,194.09433 192.03574,195.39969 192.03574,197.54969 C 192.03574,201.26757 194.14556,201.81876 199.90983,199.6068 z M 447.12503,205.6015 C 430.33162,202.24963 368.86471,196.87615 289.71273,191.84041 C 269.65157,190.56409 252.23807,194.9019 251.01605,194.14665 C 245.60083,190.79987 255.14266,184.71137 274.94497,181.89355 C 289.50633,179.82151 321.73825,174.91394 376.8661,175.02372 C 457.11248,175.18352 492.37931,177.60354 495.9304,183.19395 C 499.2194,188.37176 497.8675,197.9296 493.25579,202.10313 C 487.88083,206.96741 463.30575,208.83108 447.12503,205.6015 z M 477.36456,192.34048 C 470.64799,188.74588 310.73217,180.71288 310.73217,184.16976 C 310.73217,185.56457 337.66348,187.15211 360.1652,188.14975 C 380.75337,189.06256 411.07413,191.17008 427.54467,192.83314 C 438.56251,197.0122 491.86812,200.47911 477.36456,192.34048 z M 604.09145,198.19266 C 599.41074,196.45391 589.57876,197.06229 590.1986,187.39378 C 590.87359,176.86473 600.55718,174.15535 609.40181,171.12909 C 622.52731,166.63811 674.43365,155.4993 678.91477,159.2183 C 683.14868,162.73213 683.50712,177.56494 679.49089,183.05749 C 677.24638,186.12702 671.89675,187.28881 655.87928,188.18524 C 644.489,188.8227 631.54154,189.68971 627.10717,190.11193 C 622.67279,190.53414 607.01215,199.27761 604.09145,198.19266 z "
       id="path2221"
       sodipodi:nodetypes="csssssssccccssssssssssccssscccccccsssssssssssssssssssssssssssssccscccssssssssssssssssssccsssssccssssccssssscccscccssscsssssssccsssssssssssccsssssccssssssccsssssccsssssscccssssccssssssssssccssssccsssssccsssscccsssssssssssscccssssccssccssccssssccsssccssccsssccssccsssccssccssssssssccsssssssssccssssssssccsssssssccssssssssssccsssssssssssccssccsssssscsssccssccssssssccsscccssssssc" />
    <rect
       style="fill:none;fill-opacity:1;fill-rule:evenodd;stroke:#000000;stroke-width:4.03903294;stroke-opacity:1"
       id="rect2241"
       width="919.96094"
       height="368.53238"
       x="-206.32733"
       y="123.26204" />
  </g>
</svg>
